<?xml version="1.0" encoding="UTF-8" standalone="no"?>
<svg
   xmlns:dc="http://purl.org/dc/elements/1.1/"
   xmlns:cc="http://creativecommons.org/ns#"
   xmlns:rdf="http://www.w3.org/1999/02/22-rdf-syntax-ns#"
   xmlns:svg="http://www.w3.org/2000/svg"
   xmlns="http://www.w3.org/2000/svg"
   xmlns:sodipodi="http://sodipodi.sourceforge.net/DTD/sodipodi-0.dtd"
   xmlns:inkscape="http://www.inkscape.org/namespaces/inkscape"
   width="198px"
   height="201px"
   version="1.1"
   id="svg2"
   inkscape:version="0.91 r13725"
   sodipodi:docname="spark_architecture.svg">
  <metadata
     id="metadata82">
    <rdf:RDF>
      <cc:Work
         rdf:about="">
        <dc:format>image/svg+xml</dc:format>
        <dc:type
           rdf:resource="http://purl.org/dc/dcmitype/StillImage" />
      </cc:Work>
    </rdf:RDF>
  </metadata>
  <sodipodi:namedview
     pagecolor="#ffffff"
     bordercolor="#666666"
     borderopacity="1"
     objecttolerance="10"
     gridtolerance="10"
     guidetolerance="10"
     inkscape:pageopacity="0"
     inkscape:pageshadow="2"
     inkscape:window-width="1276"
     inkscape:window-height="752"
     id="namedview80"
     showgrid="false"
     inkscape:zoom="2.8435945"
     inkscape:cx="15.588851"
     inkscape:cy="100.5"
     inkscape:window-x="0"
     inkscape:window-y="20"
     inkscape:window-maximized="0"
     inkscape:current-layer="svg2" />
  <defs
     id="defs4" />
  <path
     style="fill:#f1bf57;stroke:none"
     inkscape:connector-curvature="0"
     id="path8"
     pointer-events="none"
     d="m -75.34024,79.481657 c 0.05,-1.04 0.94,-1.85 2.02,-1.85 l 45.91,0 c 1.08,0 1.97,0.81 2.02,1.85 l 0.05,11.19 c 0,0.52 -0.22,1.03 -0.61,1.39 -0.39,0.37 -0.91,0.57 -1.46,0.56 l -45.91,0 c -1.12,0 -2.02,-0.88 -2.02,-1.95 z m 6.05,9.58 c 0,-0.6 -0.34,-1.17 -0.88,-1.47 -0.55,-0.31 -1.22,-0.31 -1.77,0 -0.54,0.3 -0.88,0.87 -0.88,1.47 0,0.61 0.34,1.17 0.88,1.48 0.55,0.3 1.22,0.3 1.77,0 0.54,-0.31 0.88,-0.87 0.88,-1.48 z m 30.24,-0.14 c -0.31,0 -0.55,0.24 -0.55,0.53 0,0.3 0.24,0.54 0.55,0.54 l 10.08,0 c 0.31,0 0.56,-0.24 0.56,-0.54 0,-0.29 -0.25,-0.53 -0.56,-0.53 z m 0,-1.85 c -0.31,0 -0.55,0.24 -0.55,0.53 0,0.3 0.24,0.54 0.55,0.54 l 10.08,0 c 0.31,0 0.56,-0.24 0.56,-0.54 0,-0.29 -0.25,-0.53 -0.56,-0.53 z m 0,-1.9 c -0.31,0 -0.55,0.24 -0.55,0.54 0,0.29 0.24,0.53 0.55,0.53 l 10.08,0 c 0.31,0 0.56,-0.24 0.56,-0.53 0,-0.3 -0.25,-0.54 -0.56,-0.54 z" />
  <path
     style="fill:#f15f57;stroke:none"
     inkscape:connector-curvature="0"
     id="path16"
     pointer-events="none"
     d="m 57.673271,5.1083379 c 0.05,-1.04 0.94,-1.85 2.02,-1.85 l 45.909999,0 c 1.08,0 1.97,0.81 2.02,1.85 l 0.05,11.1900001 c 0,0.52 -0.22,1.03 -0.61,1.39 -0.39,0.37 -0.91,0.57 -1.46,0.56 l -45.909999,0 c -1.12,0 -2.02,-0.88 -2.02,-1.95 z m 6.05,9.5800001 c 0,-0.6 -0.34,-1.17 -0.88,-1.47 -0.55,-0.31 -1.22,-0.31 -1.77,0 -0.54,0.3 -0.88,0.87 -0.88,1.47 0,0.61 0.34,1.17 0.88,1.48 0.55,0.3 1.22,0.3 1.77,0 0.54,-0.31 0.88,-0.87 0.88,-1.48 z m 30.24,-0.14 c -0.31,0 -0.55,0.24 -0.55,0.53 0,0.3 0.24,0.54 0.55,0.54 l 10.079999,0 c 0.31,0 0.56,-0.24 0.56,-0.54 0,-0.29 -0.25,-0.53 -0.56,-0.53 z m 0,-1.85 c -0.31,0 -0.55,0.24 -0.55,0.53 0,0.3 0.24,0.54 0.55,0.54 l 10.079999,0 c 0.31,0 0.56,-0.24 0.56,-0.54 0,-0.29 -0.25,-0.53 -0.56,-0.53 z m 0,-1.9 c -0.31,0 -0.55,0.24 -0.55,0.54 0,0.29 0.24,0.53 0.55,0.53 l 10.079999,0 c 0.31,0 0.56,-0.24 0.56,-0.53 0,-0.3 -0.25,-0.54 -0.56,-0.54 z" />
  <path
     style="fill:#f15f57;stroke:none"
     inkscape:connector-curvature="0"
     id="path24"
     pointer-events="none"
     d="m 67.726463,85.108338 c 0.05,-1.04 0.94,-1.85 2.02,-1.85 l 45.909997,0 c 1.08,0 1.97,0.81 2.02,1.85 l 0.05,11.19 c 0,0.52 -0.22,1.03 -0.61,1.39 -0.39,0.37 -0.91,0.57 -1.46,0.56 l -45.909997,0 c -1.12,0 -2.02,-0.88 -2.02,-1.95 z m 6.05,9.58 c 0,-0.6 -0.34,-1.17 -0.88,-1.47 -0.55,-0.31 -1.22,-0.31 -1.77,0 -0.54,0.3 -0.88,0.87 -0.88,1.47 0,0.61 0.34,1.17 0.88,1.48 0.55,0.3 1.22,0.3 1.77,0 0.54,-0.31 0.88,-0.87 0.88,-1.48 z m 30.239997,-0.14 c -0.31,0 -0.55,0.24 -0.55,0.53 0,0.3 0.24,0.54 0.55,0.54 l 10.08,0 c 0.31,0 0.56,-0.24 0.56,-0.54 0,-0.29 -0.25,-0.53 -0.56,-0.53 z m 0,-1.85 c -0.31,0 -0.55,0.24 -0.55,0.53 0,0.3 0.24,0.54 0.55,0.54 l 10.08,0 c 0.31,0 0.56,-0.24 0.56,-0.54 0,-0.29 -0.25,-0.53 -0.56,-0.53 z m 0,-1.9 c -0.31,0 -0.55,0.24 -0.55,0.54 0,0.29 0.24,0.53 0.55,0.53 l 10.08,0 c 0.31,0 0.56,-0.24 0.56,-0.53 0,-0.3 -0.25,-0.54 -0.56,-0.54 z" />
  <path
     style="fill:#f15f57;stroke:none"
     inkscape:connector-curvature="0"
     id="path32"
     pointer-events="none"
     d="m 57.726463,165.10834 c 0.05,-1.04 0.94,-1.85 2.02,-1.85 l 45.909997,0 c 1.08,0 1.97,0.81 2.02,1.85 l 0.05,11.19 c 0,0.52 -0.22,1.03 -0.61,1.39 -0.39,0.37 -0.91,0.57 -1.46,0.56 l -45.909997,0 c -1.12,0 -2.02,-0.88 -2.02,-1.95 z m 6.05,9.58 c 0,-0.6 -0.34,-1.17 -0.88,-1.47 -0.55,-0.31 -1.22,-0.31 -1.77,0 -0.54,0.3 -0.88,0.87 -0.88,1.47 0,0.61 0.34,1.17 0.88,1.48 0.55,0.3 1.22,0.3 1.77,0 0.54,-0.31 0.88,-0.87 0.88,-1.48 z m 30.24,-0.14 c -0.31,0 -0.55,0.24 -0.55,0.53 0,0.3 0.24,0.54 0.55,0.54 l 10.079997,0 c 0.31,0 0.56,-0.24 0.56,-0.54 0,-0.29 -0.25,-0.53 -0.56,-0.53 z m 0,-1.85 c -0.31,0 -0.55,0.24 -0.55,0.53 0,0.3 0.24,0.54 0.55,0.54 l 10.079997,0 c 0.31,0 0.56,-0.24 0.56,-0.54 0,-0.29 -0.25,-0.53 -0.56,-0.53 z m 0,-1.9 c -0.31,0 -0.55,0.24 -0.55,0.54 0,0.29 0.24,0.53 0.55,0.53 l 10.079997,0 c 0.31,0 0.56,-0.24 0.56,-0.53 0,-0.3 -0.25,-0.54 -0.56,-0.54 z" />
  <path
     style="fill:none;stroke:#74b9c0;stroke-miterlimit:10"
     inkscape:connector-curvature="0"
     id="path40"
     pointer-events="none"
     stroke-miterlimit="10"
     d="m -27.273537,68.258338 64.82,-46.3" />
  <path
     style="fill:#74b9c0;stroke:#74b9c0;stroke-miterlimit:10"
     inkscape:connector-curvature="0"
     id="path42"
     pointer-events="none"
     stroke-miterlimit="10"
     d="m 41.816463,18.908338 -3.66,6.92 -0.61,-3.87 -3.46,-1.83 z" />
  <path
     style="fill:none;stroke:#74b9c0;stroke-miterlimit:10"
     inkscape:connector-curvature="0"
     id="path44"
     pointer-events="none"
     stroke-miterlimit="10"
     d="m 52.726463,23.258338 -64.82,46.3" />
  <path
     style="fill:#74b9c0;stroke:#74b9c0;stroke-miterlimit:10"
     inkscape:connector-curvature="0"
     id="path46"
     pointer-events="none"
     stroke-miterlimit="10"
     d="m -16.363537,72.608338 3.66,-6.92 0.61,3.87 3.46,1.83 z" />
  <rect
     style="fill:none;stroke:none"
     id="rect48"
     pointer-events="none"
     height="20"
     width="40"
     y="18.258337"
     x="-27.273537" />
  <rect
     style="fill:none;stroke:none"
     id="rect56"
     pointer-events="none"
     height="20"
     width="40"
     y="48.258339"
     x="12.726463" />
  <path
     style="fill:none;stroke:#74b9c0;stroke-miterlimit:10"
     inkscape:connector-curvature="0"
     id="path64"
     pointer-events="none"
     stroke-miterlimit="10"
     d="m -14.273537,87.258338 63.63,0" />
  <path
     style="fill:#74b9c0;stroke:#74b9c0;stroke-miterlimit:10"
     inkscape:connector-curvature="0"
     id="path66"
     pointer-events="none"
     stroke-miterlimit="10"
     d="m 54.606463,87.258338 -7,3.5 1.75,-3.5 -1.75,-3.5 z" />
  <path
     style="fill:none;stroke:#74b9c0;stroke-miterlimit:10"
     inkscape:connector-curvature="0"
     id="path68"
     pointer-events="none"
     stroke-miterlimit="10"
     d="m 51.726463,96.258338 -58.63,0" />
  <path
     style="fill:#74b9c0;stroke:#74b9c0;stroke-miterlimit:10"
     inkscape:connector-curvature="0"
     id="path70"
     pointer-events="none"
     stroke-miterlimit="10"
     d="m -12.153537,96.258338 7,-3.5 -1.75,3.5 1.75,3.5 z" />
  <path
     style="fill:none;stroke:#74b9c0;stroke-miterlimit:10"
     inkscape:connector-curvature="0"
     id="path72"
     pointer-events="none"
     stroke-miterlimit="10"
     d="m -23.273537,123.25834 69.44,38.89" />
  <path
     style="fill:#74b9c0;stroke:#74b9c0;stroke-miterlimit:10"
     inkscape:connector-curvature="0"
     id="path74"
     pointer-events="none"
     stroke-miterlimit="10"
     d="m 50.746463,164.70834 -7.81,-0.36 3.23,-2.2 0.19,-3.91 z" />
  <path
     style="fill:none;stroke:#74b9c0;stroke-miterlimit:10"
     inkscape:connector-curvature="0"
     id="path76"
     pointer-events="none"
     stroke-miterlimit="10"
     d="m 52.726463,153.25834 -64.47,-36.84" />
  <path
     style="fill:#74b9c0;stroke:#74b9c0;stroke-miterlimit:10"
     inkscape:connector-curvature="0"
     id="path78"
     pointer-events="none"
     stroke-miterlimit="10"
     d="m -16.303537,113.80834 7.81,0.44 -3.25,2.17 -0.22,3.91 z" />
  <text
     xml:space="preserve"
     style="font-style:normal;font-variant:normal;font-weight:bold;font-stretch:normal;font-size:20px;line-height:125%;font-family:Sans;-inkscape-font-specification:'Sans Bold';letter-spacing:0px;word-spacing:0px;fill:#000000;fill-opacity:1;stroke:none;stroke-width:1px;stroke-linecap:butt;stroke-linejoin:miter;stroke-opacity:1"
     x="-92.84024"
     y="108.51143"
     id="text4246"
     sodipodi:linespacing="125%"><tspan
       sodipodi:role="line"
       id="tspan4248"
       x="-92.84024"
       y="108.51143">driver</tspan></text>
  <text
     xml:space="preserve"
     style="font-style:normal;font-variant:normal;font-weight:bold;font-stretch:normal;font-size:20px;line-height:125%;font-family:Sans;-inkscape-font-specification:'Sans Bold';letter-spacing:0px;word-spacing:0px;fill:#000000;fill-opacity:1;stroke:none;stroke-width:1px;stroke-linecap:butt;stroke-linejoin:miter;stroke-opacity:1"
     x="56.970146"
     y="34.661236"
     id="text4250"
     sodipodi:linespacing="125%"><tspan
       sodipodi:role="line"
       id="tspan4252"
       x="56.970146"
       y="34.661236">worker</tspan></text>
  <text
     sodipodi:linespacing="125%"
     id="text4254"
     y="114.13811"
     x="67.023338"
     style="font-style:normal;font-variant:normal;font-weight:bold;font-stretch:normal;font-size:20px;line-height:125%;font-family:Sans;-inkscape-font-specification:'Sans Bold';letter-spacing:0px;word-spacing:0px;fill:#000000;fill-opacity:1;stroke:none;stroke-width:1px;stroke-linecap:butt;stroke-linejoin:miter;stroke-opacity:1"
     xml:space="preserve"><tspan
       y="114.13811"
       x="67.023338"
       id="tspan4256"
       sodipodi:role="line">worker</tspan></text>
  <text
     xml:space="preserve"
     style="font-style:normal;font-variant:normal;font-weight:bold;font-stretch:normal;font-size:20px;line-height:125%;font-family:Sans;-inkscape-font-specification:'Sans Bold';letter-spacing:0px;word-spacing:0px;fill:#000000;fill-opacity:1;stroke:none;stroke-width:1px;stroke-linecap:butt;stroke-linejoin:miter;stroke-opacity:1"
     x="57.023338"
     y="194.31831"
     id="text4258"
     sodipodi:linespacing="125%"><tspan
       sodipodi:role="line"
       id="tspan4260"
       x="57.023338"
       y="194.31831">worker</tspan></text>
  <text
     xml:space="preserve"
     style="font-style:normal;font-weight:normal;font-size:12.5px;line-height:125%;font-family:Sans;letter-spacing:0px;word-spacing:0px;fill:#000000;fill-opacity:1;stroke:none;stroke-width:1px;stroke-linecap:butt;stroke-linejoin:miter;stroke-opacity:1"
     x="-10.550026"
     y="31.496227"
     id="text4262"
     sodipodi:linespacing="125%"><tspan
       sodipodi:role="line"
       id="tspan4264"
       x="-10.550026"
       y="31.496227">tasks</tspan></text>
  <text
     xml:space="preserve"
     style="font-style:normal;font-weight:normal;font-size:15px;line-height:125%;font-family:Sans;letter-spacing:0px;word-spacing:0px;fill:#000000;fill-opacity:1;stroke:none;stroke-width:1px;stroke-linecap:butt;stroke-linejoin:miter;stroke-opacity:1"
     x="3.8683431"
     y="69.476334"
     id="text4266"
     sodipodi:linespacing="125%"><tspan
       sodipodi:role="line"
       id="tspan4268"
       x="3.8683431"
       y="69.476334">results</tspan></text>
</svg>
